<?xml version='1.0' encoding='utf-8'?>
<svg xmlns="http://www.w3.org/2000/svg" version="1.0" viewBox="0 0 686.47 673.64"> <g transform="translate(-315.19 -493.22)"> <path d="m583.59 982.93c-18.49-8.58-26.51-29.72-43.69-40.33-16.01-10.68-28.7-25.83-35.61-44.1-6.07-14.86-7.47-31.29-16.06-45.18-6.24-12.98-21.76-17.73-29.51-29.62-12.97-9.88-28.4-16.68-44.88-15.54-23.71 0.44-51.43-5.14-70.52 13.12-14.01 12.07-21.78 29.86-22.84 48.38-5.11 33.48 3.11 67.67 15.46 98.59 11.18 21.44 27.43 39.65 43.54 57.35 16.5 14.5 36.38 24.6 51.75 40.5 19.88 14.1 43.98 20 66.56 28 33.05 10 67.94 11.8 102.11 9.7 13.94-6.9 19.16-24.3 33.41-31.4 16.26-9.7 24.01-30.5 13.83-47.6-4.53-14.4-14.34-28.92-30.94-27.83-4.87-0.51-9.65-1.6-14.37-2.89" fill="#af6839" fill-rule="evenodd" stroke="#000" stroke-width="7.5016"/> <path d="m553.26 955.14-63.43 54.86-41.37 66 30.34 12.2s19.76-21.8 43.21-40.8c25.06-20.2 57-64.15 57-64.15l-11.04-12.18-14.71-15.93z" fill="#784729" fill-rule="evenodd" stroke="#000" stroke-width="7"/> <path d="m504.54 893.3-60.68 56.69-55.16 84.81 31.26 20.6s32.64-49 56.08-67.93c25.06-20.24 57-56.69 57-56.69l-12.87-13.12-15.63-24.36z" fill="#784729" fill-rule="evenodd" stroke="#000" stroke-width="7"/> <path d="m590.88 823.01c-5.8 5.91-13.59 16.33-21.89 24.79-5.98 6.09-12.28 12.87-14.6 22.31-1.47 6.04-17.71 21.02-20.67 24.8-4.45 5.66-8.14 12.67-6.08 21.07 2.22 9.07 11.29 14 15.81 18.6 0.04 0.04 15.02-7.03 17.03-7.44 14.91-3.04 33.91-14.18 47.43-21.08 12.89-6.56 16.8-15.18 25.54-22.31 9.24-7.53 12.89-17.81 15.81-29.75 2.72-11.06-19.63-17.96-26.75-22.32-9.1-5.56-15.81-8.05-24.33-12.39-2.43-1.24-4.86 2.48-7.3 3.72z" fill="#af6839" fill-rule="evenodd" stroke="#000" stroke-width="7.5016"/> <path d="m790.35 806.89c-7.25-3.7-8.86 13.99-14.59 19.83-4.61 4.7-7 18.61-8.52 24.8-2.69 10.99 0.86 20.56 7.3 26.03 8.41 7.14 10.89 12.05 19.46 18.6 6.4 4.89 20.7 10.85 26.76 12.39 5.15 1.32 12.89 7.94 20.68 9.92 7.6 1.94 14.2 5.48 21.89 7.44 10.78 2.75 19.31-2.63 25.54 3.72 3.53 3.59 13.89 0.36 17.03-1.24 1.81-0.92 3.24-2.48 4.87-3.72 4.61-3.53 6.08-13.45 6.08-19.83 0-5.63-18.99-13.52-24.33-14.88-9.95-2.54-15.95-10.96-24.32-17.36-7.96-6.08-15.68-11.35-24.33-14.87-13.24-5.4-21.91-18.61-31.62-28.52-1.44-1.46-2.44-3.3-3.65-4.95-4.91-6.67-22.19-12-14.6-22.32" fill="#af6839" fill-rule="evenodd" stroke="#000" stroke-width="7.5016"/> <path d="m639.53 835.4c-3.17 19.02-14.82 35.2-18.68 54.08-12.21 19.2-18.72 40.42-23.62 62.5-11.2 21.97-17.51 44.1-15.25 69.02-2.57 20 28.92 28.1 12.82 49-12.74 16.3-1.18 38.7-14.08 54.4-8.83 10.6-42.38 10-28.69 30.8 18.69 14.7 42.89 4.5 63.97 3.7 19.52-4.9 33.01-29 55.12-22.8 21.6 5.3 45.96 7.2 68.09-4 20.59 0.5 31.89-1.4 45.9-13.5 22.37-9.2 48.61 9.3 68.63 15 19.81 9.5 39.69-22 21.22-32.9-6.06-10.9-22.99-17-35.14-25.8-7.31-19.6-1.69-42.7-2.9-63.6 5.78-17.62 6.81-36.34 2.59-54.68-4.43-19.39-14.13-37.15-18.45-56.64-8.4-19.56-31.64-30.02-27.2-54.18 0.33-17.35-11.59-32.73-28.81-34.31-21.55-3.53-43.53-1.15-65.24-2.96-19.08-0.58-38.85 3.11-54.56 14.71-7.28 3.7-30.75 11.52-5.72 12.16z" fill="#af6839" fill-rule="evenodd" stroke="#000" stroke-width="7.5016"/> <path transform="matrix(1.9814 0 0 2.0196 -7.5271 -223.79)" d="m297.1 394.94a28.543 24.553 0 1 1-57.09 0 28.543 24.553 0 1 1 57.09 0z" fill="#af6839" fill-rule="evenodd" stroke="#000" stroke-linecap="round" stroke-linejoin="round" stroke-width="3.75"/> <path transform="matrix(1.9814 0 0 2.0196 -7.5271 -223.79)" d="m454.24 383.59a24.553 26.702 0 1 1-49.11 0 24.553 26.702 0 1 1 49.11 0z" fill="#af6839" fill-rule="evenodd" stroke="#000" stroke-linecap="round" stroke-linejoin="round" stroke-width="3.75"/> <path d="m771.15 1132.2c0 11.7-16.8 33.5-43.59 13.9-9.72-7.1-12.99 6.8-27.2 6.8-28.42 0-22.99-15.2-22.99-38.5 0-23.2 23.07-42.1 51.49-42.1 28.41 0 42.29 36.7 42.29 59.9z" fill="#df905d" fill-rule="evenodd" stroke="#000" stroke-linecap="round" stroke-linejoin="round" stroke-width="7.5016"/> <path transform="matrix(1.9814 0 0 2.0196 -7.5271 -223.79)" d="m379.99 654.74a10.439 11.135 0 1 1-20.88 0 10.439 11.135 0 1 1 20.88 0z" fill="#df905d" fill-rule="evenodd" stroke="#000" stroke-linecap="round" stroke-linejoin="round" stroke-width="3.75"/> <path transform="matrix(2.3753 0 0 1.9694 -169.6 -197.43)" d="m411.54 591.17a37.35 65.42 0 1 1-74.7 0 37.35 65.42 0 1 1 74.7 0z" fill="#df905d" fill-rule="evenodd" stroke="#000" stroke-linecap="round" stroke-linejoin="round" stroke-width="3.75"/> <path transform="matrix(2.2157 0 0 2.0054 -75.215 -218.16)" d="m288.13 397.7a14.847 14.383 0 1 1-29.7 0 14.847 14.383 0 1 1 29.7 0z" fill="#875151" fill-rule="evenodd" stroke="#000" stroke-linecap="round" stroke-linejoin="round" stroke-width="3.75"/> <path transform="matrix(2.1204 0 0 2.1332 261.09 -290.54)" d="m288.13 397.7a14.847 14.383 0 1 1-29.7 0 14.847 14.383 0 1 1 29.7 0z" fill="#875151" fill-rule="evenodd" stroke="#000" stroke-linecap="round" stroke-linejoin="round" stroke-width="3.75"/> <path transform="matrix(1.9801 0 0 2.2399 -7.0346 -342.32)" d="m470.2 464.92a113.56 72.433 0 1 1-227.12 0 113.56 72.433 0 1 1 227.12 0z" fill="#af6839" fill-rule="evenodd" stroke="#000" stroke-linecap="round" stroke-linejoin="round" stroke-width="3.5621"/> <path d="m922.64 864.2c-2.48-0.63 1.07-19.35 3.39-25.24 3.43-8.69 0.84-11.58 8.38-19.23 2.11-2.13 16.39-3.72 19.9-3.72 10.91 0 21.5 2.2 21.5 12.62 0 8.64 1.13 18.23 1.13 27.54 0 14.16 4.52 26.11 4.52 39.01 0 11.93 3.39 25.21 5.66 36.71 2.54 12.89 2.12 29.47 6.79 41.3 2.26 5.75 4.27 10.62 4.27 16.88-1.55 17.43-14.27 40.53-29.16 49.63-13.86 7.1-20.17 12.4-37.33 8.1-26.64-8-23.5 14.3-49.78-26.4-6.68-8.5-10.45-8.5-10.45-19-4.38-2.64-3.09-33.16 10.45-49.86 4.75-6.42 9.45-11.12 12.45-17.21 2.44-4.95 4.57-8.1 7.92-12.62 3.38-4.57 4.22-13.17 6.78-18.36 3.8-7.71 10.18-10.3 10.18-19.5 0-7.93-0.75-13.64 3.4-20.65z" fill="#9d928b" fill-rule="evenodd" stroke="#000" stroke-width="6.9597"/> <path transform="matrix(1.9814 0 0 2.0196 -16.041 -218.83)" d="m488 561.91a15.346 19.029 0 1 1-30.69 0 15.346 19.029 0 1 1 30.69 0z" fill="#af6839" fill-rule="evenodd" stroke="#000" stroke-linecap="round" stroke-linejoin="round" stroke-width="3.75"/> <path transform="matrix(1.8227 0 0 1.5397 35.943 50.714)" d="m285.43 577.25a23.019 24.553 0 1 1-46.03 0 23.019 24.553 0 1 1 46.03 0z" fill="#af6839" fill-rule="evenodd" stroke="#000" stroke-linecap="round" stroke-linejoin="round" stroke-width="3.75"/> <path transform="matrix(1.9814 0 0 2.0196 -7.5271 -223.79)" d="m374.35 464.59a15.865 14.732 0 1 1-31.73 0 15.865 14.732 0 1 1 31.73 0z" fill="#784729" fill-rule="evenodd" stroke="#000" stroke-linecap="round" stroke-linejoin="round" stroke-width="3.75"/> <path d="m765.65 712.96c0.65 0.33-8.21 27.31-8.98 32.8-0.98 7.03-5.28 14.9-10.48 17.55-4.27 2.18-12.19 0.76-17.21 0.76-6.06 0-7.75-3.05-13.47-3.05-6.82 0-12.17-3.05-18.72-3.05-8.28 0-13.51 6.12-20.95 9.15-6.09 2.48-10.65 4.58-20.96 4.58h-4.49" fill="none" stroke="#000" stroke-linecap="round" stroke-linejoin="round" stroke-width="7.5016"/> <path d="m562.82 627.98c57-65.88 211.7-65.88 268.7 0 21.17 24.46 21.17 83.09 0 107.56-28.5 32.94-80.68-36.11-133.61-36.11-52.92 0-106.59 69.05-135.09 36.11-21.17-24.47-21.17-83.1 0-107.56z" fill="#784729" fill-rule="evenodd" stroke="#000" stroke-linecap="round" stroke-linejoin="round" stroke-width="7.5563"/> <path transform="matrix(1.9814 0 0 2.0196 -7.5271 -223.79)" d="m333.55 440.98a20.021 19.454 0 1 1-40.04 0 20.021 19.454 0 1 1 40.04 0z" fill="#ede2dc" fill-rule="evenodd" stroke="#000" stroke-linecap="round" stroke-linejoin="round" stroke-width="3.75"/> <path transform="matrix(1.9814 0 0 2.0196 166.59 -227.81)" d="m333.55 440.98a20.021 19.454 0 1 1-40.04 0 20.021 19.454 0 1 1 40.04 0z" fill="#ede2dc" fill-rule="evenodd" stroke="#000" stroke-linecap="round" stroke-linejoin="round" stroke-width="3.75"/> <path d="m675.84 767.89c2.01 4.22 2.65 16.93 4.49 24.41 1.51 6.18 4.38 14.31 6.73 18.31 5.78 9.81 3.42 11.1 17.97 6.86 1.51-0.44 2.99-1.01 4.49-1.52 1.26-0.43 7.82-14.34 8.23-16.02 1.66-6.77 7.48-11.82 9.73-17.55 2.02-5.13 3.83-11.76 2.99-16.02-0.56-2.88-15.45-4.47-18.71-5.3-7.04-1.8-13.89-3.15-20.95-0.8-4.33 1.44-11.24 5.09-14.97 7.63z" fill="#c14249" fill-rule="evenodd" stroke="#000" stroke-width="7.5016"/> <path transform="matrix(2.2274 0 0 1.9995 -87.534 -214.96)" d="m324.48 440.6a9.8214 10.388 0 1 1-19.64 0 9.8214 10.388 0 1 1 19.64 0z" fill-rule="evenodd" stroke="#000" stroke-linecap="round" stroke-linejoin="round" stroke-width="3.75"/> <path transform="matrix(2.2274 0 0 1.9995 87.985 -218.39)" d="m324.48 440.6a9.8214 10.388 0 1 1-19.64 0 9.8214 10.388 0 1 1 19.64 0z" fill-rule="evenodd" stroke="#000" stroke-linecap="round" stroke-linejoin="round" stroke-width="3.75"/> <path d="m596.5 629.8c-5.43 2.93-10.84 6.95-15.55 11.39-2.61 5.75-6.55 11.11-7.13 17.59-0.79 4.26-0.86 8.7 0.52 12.85 0.97 4.3 0.77 8.85 2.15 13.04 3.3 3.75 5.01-4.29 8.52-5.06 20.04-11.94 40.25-23.56 60.41-35.29-3.55-3.78-3.99-7.45-8.99-9.56-4.31-2.86-9.14-7.34-13.68-8.52-4.53-1.19-9.29-1.12-13.59-0.25-4.33 0.87-8.92 1.79-12.66 3.81z" fill="#af6839" fill-rule="evenodd" stroke="#000" stroke-linecap="round" stroke-linejoin="round" stroke-width="7.5016"/> <path d="m802.99 626.15c5.42 2.93 10.84 6.94 15.54 11.39 2.61 5.75 6.56 11.1 7.13 17.58 0.79 4.26 0.87 8.71-0.52 12.85-0.96 4.3-0.76 8.86-2.14 13.05-3.3 3.75-5.02-4.3-8.52-5.06-20.04-11.94-40.26-23.56-60.42-35.3 3.55-3.78 4-7.44 8.99-9.55 4.31-2.87 9.14-7.34 13.68-8.53 4.54-1.18 9.29-1.11 13.6-0.24 4.33 0.87 8.91 1.79 12.66 3.81z" fill="#af6839" fill-rule="evenodd" stroke="#000" stroke-linecap="round" stroke-linejoin="round" stroke-width="7.5016"/> <path d="m875.43 891.03 51.77 5.53-19.23 36.68-37.96-15.57 5.42-26.64z" fill="#af6839" fill-rule="evenodd"/> <path d="m536.25 900.58-25.63 16.58 32.53 28.14 25.64-39.69-32.54-5.03z" fill="#af6839" fill-rule="evenodd"/> <path transform="matrix(1.9814 0 0 2.0196 -3.6612 -233.63)" d="m494.13 524.76a11.445 4.8518 0 1 1-22.89 0 11.445 4.8518 0 1 1 22.89 0z" fill-rule="evenodd"/> <path d="m460.41 826.77-65.27 65.12-56.08 80.12 25.74 36.59s39.07-60.29 62.52-79.23c25.06-20.24 64.35-71.68 64.35-71.68l-9.19-14.99-22.07-15.93z" fill="#784729" fill-rule="evenodd" stroke="#000" stroke-width="7"/> </g> </svg>