<?xml version='1.0' encoding='utf-8'?>
<svg xmlns:xlink="http://www.w3.org/1999/xlink" xmlns="http://www.w3.org/2000/svg" viewBox="0 0 128 128"> <defs> <filter id="n" x="-.34802" y="-.34085" width="1.696" height="1.6817"> <feGaussianBlur stdDeviation="5.46506"/> </filter> <filter id="m" x="-.51975" y="-.45339" width="2.0395" height="1.9068"> <feGaussianBlur stdDeviation="4.15116"/> </filter> <filter id="l" x="-.07002" y="-.3401" width="1.14" height="1.6802"> <feGaussianBlur stdDeviation="3.96783"/> </filter> <linearGradient id="a"> <stop stop-opacity="0" offset="0"/> <stop stop-opacity=".57196" offset="1"/> </linearGradient> <radialGradient id="d" cx="210.89" cy="506.35" r="68" gradientTransform="matrix(1.4028 1.6439e-6 -1.4521e-7 .20588 -89.845 403.11)" gradientUnits="userSpaceOnUse"> <stop offset="0"/> <stop stop-opacity="0" offset="1"/> </radialGradient> <radialGradient id="e" cx="216.99" cy="497.96" r="65" gradientTransform="matrix(.51027 1.0072 -.96511 .48897 655.29 -405.81)" gradientUnits="userSpaceOnUse" xlink:href="#a"/> <radialGradient id="b" cx="233.5" cy="409.86" r="15.5" gradientTransform="matrix(.3871 1.5161 -1.4234 .36342 726.51 -93.107)" gradientUnits="userSpaceOnUse" xlink:href="#a"/> <radialGradient id="c" cx="392.24" cy="402.71" r="3.625" gradientTransform="matrix(1.2438 .39012 -.39366 1.2551 62.891 -255.76)" gradientUnits="userSpaceOnUse" xlink:href="#a"/> <radialGradient id="k" cx="132.87" cy="408.73" r="10.283" gradientTransform="matrix(.86758 -.043394 .023363 .46709 118.52 -87.602)" gradientUnits="userSpaceOnUse" xlink:href="#a"/> <radialGradient id="j" cx="136.62" cy="419.19" r="7.9448" gradientTransform="matrix(.89087 .060974 -.065751 .96066 151.87 -307.8)" gradientUnits="userSpaceOnUse" xlink:href="#a"/> <radialGradient id="i" cx="451.97" cy="437.09" r="6" gradientTransform="matrix(.42555 1.0935 -1.1421 .44444 762.08 -254.34)" gradientUnits="userSpaceOnUse" xlink:href="#a"/> <radialGradient id="h" cx="390.32" cy="378.02" r="3.5355" gradientTransform="matrix(2.01 2.9257e-5 -.00016368 11.274 -597.65 -4231.1)" gradientUnits="userSpaceOnUse" xlink:href="#a"/> <radialGradient id="g" cx="143.81" cy="439.6" r="6.4879" gradientTransform="matrix(.98173 -.035194 .18176 5.0701 -34.713 -2150.9)" gradientUnits="userSpaceOnUse" xlink:href="#a"/> <radialGradient id="f" cx="208.35" cy="408.81" r="58.521" gradientTransform="matrix(-1.3069 .036499 -.0020274 -.057428 574.55 114.34)" gradientUnits="userSpaceOnUse" xlink:href="#a"/> </defs> <g transform="translate(-233.42 -11.735)"> <path transform="matrix(.7548 0 0 .61103 146.27 -182.83)" d="m274 507.36c0 7.728-30.464 14-68 14s-68-6.272-68-14 30.464-14 68-14 68 6.272 68 14z" fill="url(#d)" filter="url(#l)"/> <path d="m348.1 83.695c0 3.4523-0.37818 26.777-1.0954 30.015-1.7638 8.8818-7.4732 13.995-16.047 15.942-3.985 0.7434-8.5178-15.558-13.437-15.648s-10.225 16.028-15.757 16.028c-5.5573 0-10.887-16.128-15.826-16.053s-9.4866 16.353-13.48 15.582c-9.0418-1.5005-13.769-7.6856-15.999-16.143-0.67582-3.1476-1.0316-26.374-1.0316-29.722 0-25.578 20.759-46.336 46.336-46.336s46.336 20.759 46.336 46.336z" fill="#ff0"/> <path d="m348.16 84.026c0 3.4523-0.37818 26.777-1.0954 30.015-1.7638 8.8818-7.4732 13.995-16.047 15.942-3.985 0.7434-8.5178-15.558-13.437-15.648s-10.225 16.028-15.757 16.028c-5.5573 0-10.887-16.128-15.826-16.053s-9.4866 16.353-13.48 15.582c-9.0418-1.5005-13.769-7.6856-15.999-16.143-0.67582-3.1476-1.0316-26.374-1.0316-29.722 0-25.578 20.759-46.336 46.336-46.336s46.336 20.759 46.336 46.336z" fill="url(#e)"/> <path d="m241.77 110.17s10.25-16 11.25-9.5-8 7.5-11.25 9.5z" fill="#f00" fill-rule="evenodd"/> <path d="m241.77 110.17s10.25-16 11.25-9.5-8 7.5-11.25 9.5z" fill="url(#j)" fill-rule="evenodd"/> <path d="m237.61 102.17s18.962-1.2309 13.757-5.2505-10.434 3.3735-13.757 5.2505z" fill="#f00" fill-rule="evenodd"/> <path transform="matrix(.71287 0 0 .71287 159.19 -222.38)" d="m255 417.86a15.5 15.5 0 1 1-31 0 15.5 15.5 0 1 1 31 0z" fill="#fff"/> <path transform="matrix(.71287 0 0 .71287 159.19 -222.38)" d="m255 417.86a15.5 15.5 0 1 1-31 0 15.5 15.5 0 1 1 31 0z" fill="url(#b)"/> <path transform="matrix(.43692 0 0 .43692 228.84 -106.36)" d="m255 417.86a15.5 15.5 0 1 1-31 0 15.5 15.5 0 1 1 31 0z"/> <path transform="matrix(4.0807 -1.188 1.0528 4.2262 -2029.1 -1229.8)" d="m462.25 443.5-2.944-3.3997-7.306 1.6497 3.3997-2.944-1.6497-7.306 2.944 3.3997 7.306-1.6497-3.3997 2.944 1.6497 7.306z" fill="#ff2a2a"/> <path transform="matrix(4.0807 -1.188 1.0528 4.2262 -2029.1 -1229.8)" d="m462.25 443.5-2.944-3.3997-7.306 1.6497 3.3997-2.944-1.6497-7.306 2.944 3.3997 7.306-1.6497-3.3997 2.944 1.6497 7.306z" fill="url(#i)"/> <path transform="matrix(.71287 0 0 .71287 130.68 -222.38)" d="m255 417.86a15.5 15.5 0 1 1-31 0 15.5 15.5 0 1 1 31 0z" fill="#fff"/> <path transform="matrix(.71287 0 0 .71287 130.68 -222.38)" d="m255 417.86a15.5 15.5 0 1 1-31 0 15.5 15.5 0 1 1 31 0z" fill="url(#b)"/> <path transform="matrix(.43692 0 0 .43692 200.33 -106.36)" d="m255 417.86a15.5 15.5 0 1 1-31 0 15.5 15.5 0 1 1 31 0z"/> <path transform="matrix(.71287 0 0 .71287 153.03 -234.5)" d="m180.01 413.25c-10.026 10.27-20.406 16.414-23.171 13.715s3.1277-13.225 13.153-23.494 20.406-16.414 23.171-13.715-3.1277 13.225-13.153 23.494z" fill="#fff" fill-opacity=".62745" filter="url(#n)"/> <path transform="matrix(.5498 .45375 -.45375 .5498 423.03 -273.33)" d="m262 501.86c0 7.452-2.464 13.5-5.5 13.5s-5.5-6.048-5.5-13.5 2.464-13.5 5.5-13.5 5.5 6.048 5.5 13.5z" fill="#fff" fill-opacity=".43439" filter="url(#m)"/> <path d="m237.61 102.17s18.962-1.2309 13.757-5.2505-10.434 3.3735-13.757 5.2505z" fill="url(#k)" fill-rule="evenodd"/> <path transform="translate(-139.23 -305.83)" d="m396.75 404.12a3.625 3.625 0 1 1-7.25 0 3.625 3.625 0 1 1 7.25 0z" fill="#f00"/> <path transform="translate(-139.23 -305.83)" d="m396.75 404.12a3.625 3.625 0 1 1-7.25 0 3.625 3.625 0 1 1 7.25 0z" fill="url(#c)"/> <g transform="matrix(-.62617 -.42054 .66055 -.39865 327.83 213.38)"> <path d="m187.09 28.182 7.0711-9.1924v37.477h-7.0711v-28.284z" fill="#ececec"/> <path d="m186.83 28.441 7.0711-9.1924v37.477h-7.0711v-28.284z" fill="url(#h)"/> <path d="m185 55.169h9.25v57.75l-9.25-3.5v-54.25z" fill="#00003f"/> <path d="m184.74 55.169h9.25v57.75l-9.25-3.5v-54.25z" fill="url(#g)"/> </g> <path d="m344.92 99.379-87.654 2.448c-3.5958-0.83261-2.5747-2.6214-2.6784-4.1773l93.554-2.6127c0.53063 2.1057-0.71012 3.4845-3.2214 4.3421z" fill="#f00"/> <path d="m344.92 99.379-87.654 2.448c-3.5958-0.83261-2.5747-2.6214-2.6784-4.1773l93.554-2.6127c0.53063 2.1057-0.71012 3.4845-3.2214 4.3421z" fill="url(#f)"/> </g> </svg>