<?xml version="1.0" encoding="utf-8"?>
<!-- Generator: Adobe Illustrator 9.0, SVG Export Plug-In  -->
<!DOCTYPE svg PUBLIC "-//W3C//DTD SVG 20000303 Stylable//EN"   "http://www.w3.org/TR/2000/03/WD-SVG-20000303/DTD/svg-20000303-stylable.dtd" [
	<!ENTITY st0 "fill:#FFFFFF;stroke-width:0.5;">
	<!ENTITY st1 "fill-rule:nonzero;clip-rule:nonzero;fill:#E61408;stroke:#000000;stroke-miterlimit:4;">
	<!ENTITY st2 "stroke:none;">
]>
<!-- This set of SVG files is a complete cards game with figures, numbers	-->
<!--    and backs of cards completely designed in SVG.				-->
<!--    									-->
<!--    Copyright (C) 2004 David Bellot						-->
<!--										-->
<!--    This library is free software; you can redistribute it and/or		-->
<!--    modify it under the terms of the GNU Lesser General Public		-->
<!--    License as published by the Free Software Foundation; either		-->
<!--    version 2 of the License, or (at your option) any later version		-->
<!--										-->
<!--    This library is distributed in the hope that it will be useful,		-->
<!--    but WITHOUT ANY WARRANTY; without even the implied warranty of		-->
<!--    MERCHANTABILITY or FITNESS FOR A PARTICULAR PURPOSE.  See the GNU	-->
<!--    Lesser General Public License for more details.				-->
<!--										-->
<!--    You should have received a copy of the GNU Lesser General Public	-->
<!--    License along with this library; if not, write to the Free Software	-->
<!--    Foundation, Inc., 59 Temple Place, Suite 330, Boston, MA 02111-1307  USA-->
<!--										-->
<!--    Contact the author David Bellot at bellot@stat.berkeley.edu or 		-->
<!--    david.bellot@free.fr or yimyom@users.sourceforge.net			-->
<svg  width="167.0859375pt" height="242.6669922pt" viewBox="0 0 167.0859375 242.6669922" xml:space="preserve">
	<g id="Layer_x0020_1" style="&st1;">
		<path style="&st0;" d="M166.8359375,235.5478516c0,3.7753906-3.0859375,6.8691406-6.8701172,6.8691406H7.1108398c-3.7749023,0-6.8608398-3.09375-6.8608398-6.8691406V7.1201172C0.25,3.3452148,3.3359375,0.25,7.1108398,0.25h152.8549805
			c3.7841797,0,6.8701172,3.0952148,6.8701172,6.8701172v228.4277344z"/>
		<g>
			<path style="&st2;" d="M69.8173828,113.5068359c0.0136719,9.5800781,12.0224609,16.5576172,15.5380859,24.1425781c3.546875-7.5664063,15.5917969-14.4824219,15.6542969-24.0620117c0.0273438-4.5175781-3.4707031-8.1938477-7.7773438-8.203125
				c-4.3076172-0.0087891-7.8056641,3.640625-7.8183594,8.1669922c0.0126953-4.5263672-3.4711914-8.1938477-7.7783203-8.2026367c-4.3071289-0.0180664-7.8046875,3.640625-7.8183594,8.1582031z"/>
		</g>
		<g>
			<path style="&st2;" d="M10.9990234,26.0371094v-1.46875h0.6616211l3.0327148-16.5625h1.2807617l3.0449219,16.5625h0.7612305v1.46875h-3.7700195v-1.46875h0.7856445l-0.6645508-3.6875h-3.0209961l-0.6762695,3.6875h0.9663086v1.46875h-2.4013672z
				 M13.3764648,19.4121094h2.4887695l-1.2324219-6.8847656l-1.2563477,6.8847656z"/>
		</g>
		<g>
			<path style="&st2;" d="M155.5214844,216.6181641v1.46875h-0.6621094l-3.0322266,16.5625h-1.2802734l-3.0449219-16.5625h-0.7617188v-1.46875h3.7695313v1.46875h-0.7851563l0.6640625,3.6875h3.0214844l0.6757813-3.6875h-0.9658203v-1.46875h2.4013672z
				 M153.1445313,223.2431641h-2.4892578l1.2324219,6.8847656l1.2568359-6.8847656z"/>
		</g>
		<g>
			<path style="&st2;" d="M11.5195313,31.6108398c0.0029297,2.8735352,3.605957,4.9667969,4.659668,7.2431641c1.0649414-2.2709961,4.6791992-4.3457031,4.6962891-7.2197266c0.0083008-1.3564453-1.0410156-2.4580078-2.3330078-2.4614258
				s-2.3413086,1.0932617-2.3447266,2.449707c0.003418-1.3564453-1.0415039-2.4584961-2.3334961-2.4614258c-1.2919922-0.003418-2.3417969,1.0927734-2.3447266,2.449707z"/>
		</g>
		<g>
			<path style="&st2;" d="M154.8964844,210.9082031c-0.0029297-2.8740234-3.6064453-4.9658203-4.6601563-7.2431641c-1.0644531,2.2714844-4.6787109,4.3457031-4.6962891,7.2197266c-0.0078125,1.3564453,1.0410156,2.4580078,2.3330078,2.4619141
				c1.2919922,0.0029297,2.3417969-1.09375,2.3457031-2.4501953c-0.0039063,1.3564453,1.0410156,2.4580078,2.3320313,2.4619141c1.2929688,0.0029297,2.3427734-1.09375,2.3457031-2.4501953z"/>
		</g>
	</g>
</svg>
