<?xml version="1.0" encoding="utf-8"?>
<!-- Generator: Adobe Illustrator 9.0, SVG Export Plug-In  -->
<!DOCTYPE svg PUBLIC "-//W3C//DTD SVG 20000303 Stylable//EN"   "http://www.w3.org/TR/2000/03/WD-SVG-20000303/DTD/svg-20000303-stylable.dtd" [
	<!ENTITY st0 "fill:#FFFFFF;stroke-width:0.5;">
	<!ENTITY st1 "fill-rule:nonzero;clip-rule:nonzero;stroke:#000000;stroke-miterlimit:4;">
	<!ENTITY st2 "stroke:none;">
]>
<!-- This set of SVG files is a complete cards game with figures, numbers	-->
<!--    and backs of cards completely designed in SVG.				-->
<!--    									-->
<!--    Copyright (C) 2004 David Bellot						-->
<!--										-->
<!--    This library is free software; you can redistribute it and/or		-->
<!--    modify it under the terms of the GNU Lesser General Public		-->
<!--    License as published by the Free Software Foundation; either		-->
<!--    version 2 of the License, or (at your option) any later version		-->
<!--										-->
<!--    This library is distributed in the hope that it will be useful,		-->
<!--    but WITHOUT ANY WARRANTY; without even the implied warranty of		-->
<!--    MERCHANTABILITY or FITNESS FOR A PARTICULAR PURPOSE.  See the GNU	-->
<!--    Lesser General Public License for more details.				-->
<!--										-->
<!--    You should have received a copy of the GNU Lesser General Public	-->
<!--    License along with this library; if not, write to the Free Software	-->
<!--    Foundation, Inc., 59 Temple Place, Suite 330, Boston, MA 02111-1307  USA-->
<!--										-->
<!--    Contact the author David Bellot at bellot@stat.berkeley.edu or 		-->
<!--    david.bellot@free.fr or yimyom@users.sourceforge.net			-->
<svg  width="167.0869141pt" height="242.6669922pt" viewBox="0 0 167.0869141 242.6669922" xml:space="preserve">
	<g id="Layer_x0020_1" style="&st1;">
		<path style="&st0;" d="M166.8369141,235.5478516c0,3.7773438-3.0869141,6.8691406-6.8710938,6.8691406H7.1108398c-3.7749023,0-6.8608398-3.0917969-6.8608398-6.8691406V7.1201172C0.25,3.3427734,3.3359375,0.25,7.1108398,0.25h152.8549805
			c3.7841797,0,6.8710938,3.0927734,6.8710938,6.8701172v228.4277344z"/>
		<g style="&st2;">
			<g>
				<path d="M93.5009766,137.4697266c-3.4794922,0.0029297-5.3095703-3.7070313-6.2695313-7.4160156c-0.9609375-3.7119141-1.0517578-7.4238281-1.0517578-7.4238281l-1.7753906-0.0175781c0,0-0.3330078,14.8476563-7.2905273,14.8535156l16.387207,0.0039063z"/>
			</g>
			<path d="M99.3876953,122.6259766c-0.0302734-7.2421875-10.8730469-12.4951172-14.0566406-18.2265625c-3.1826172,5.7314453-14.0253906,10.984375-14.0561523,18.2265625c-0.0141602,3.4199219,3.1469727,6.1904297,7.0288086,6.1904297
				c3.8808594,0,7.0273438-2.7705078,7.0273438-6.1904297c0,3.4199219,3.1474609,6.1904297,7.0292969,6.1904297s7.0273438-2.7705078,7.0273438-6.1904297z"/>
		</g>
		<g>
			<path style="&st2;" d="M11.0117188,25.7900391v-1.46875h0.6616211l3.0327148-16.5625h1.2807617l3.0449219,16.5625h0.7612305v1.46875h-3.7700195v-1.46875h0.7856445l-0.6645508-3.6875h-3.0209961l-0.6762695,3.6875h0.9663086v1.46875h-2.4013672z
				 M13.3891602,19.1650391h2.4887695l-1.2324219-6.8847656l-1.2563477,6.8847656z"/>
		</g>
		<g>
			<path style="&st2;" d="M155.5341797,216.3710938v1.46875h-0.6621094l-3.0322266,16.5625h-1.2802734l-3.0449219-16.5625h-0.7617188v-1.46875h3.7695313v1.46875h-0.7851563l0.6640625,3.6875h3.0214844l0.6757813-3.6875h-0.9658203v-1.46875h2.4013672z
				 M153.1572266,222.9960938h-2.4892578l1.2324219,6.8847656l1.2568359-6.8847656z"/>
		</g>
		<g style="&st2;">
			<g>
				<path d="M18.934082,39.2836914c-1.0952148,0.0014648-1.6713867-1.1669922-1.9741211-2.3349609c-0.3017578-1.168457-0.3305664-2.3374023-0.3305664-2.3374023l-0.559082-0.0053711c0,0-0.1044922,4.6743164-2.2954102,4.6767578l5.1591797,0.0009766z"/>
			</g>
			<path d="M20.7880859,34.6103516c-0.0097656-2.2802734-3.4233398-3.9335938-4.4257813-5.7382813c-1.0019531,1.8046875-4.4160156,3.4580078-4.4257813,5.7382813c-0.0043945,1.0771484,0.9907227,1.9492188,2.2128906,1.9492188
				s2.2128906-0.8720703,2.2128906-1.9492188c0,1.0771484,0.9907227,1.9492188,2.2128906,1.9492188s2.2128906-0.8720703,2.2128906-1.9492188z"/>
		</g>
		<g style="&st2;">
			<g>
				<path d="M147.9199219,202.9501953c1.0957031-0.0009766,1.671875,1.1669922,1.9736328,2.3349609c0.3027344,1.1689453,0.3320313,2.3369141,0.3320313,2.3369141l0.5585938,0.0058594c0,0,0.1044922-4.6738281,2.2949219-4.6767578l-5.1591797-0.0009766z"/>
			</g>
			<path d="M146.0664063,207.6240234c0.0097656,2.2792969,3.4228516,3.9335938,4.4257813,5.7382813c1.0019531-1.8046875,4.4160156-3.4589844,4.4257813-5.7382813c0.0048828-1.0771484-0.9912109-1.9492188-2.2138672-1.9492188
				c-1.2207031,0-2.2119141,0.8720703-2.2119141,1.9492188c0-1.0771484-0.9912109-1.9492188-2.2128906-1.9492188s-2.2128906,0.8720703-2.2128906,1.9492188z"/>
		</g>
	</g>
</svg>
