<?xml version="1.0" encoding="utf-8"?>
<!-- Generator: Adobe Illustrator 9.0, SVG Export Plug-In  -->
<!DOCTYPE svg PUBLIC "-//W3C//DTD SVG 20000303 Stylable//EN"   "http://www.w3.org/TR/2000/03/WD-SVG-20000303/DTD/svg-20000303-stylable.dtd" [
	<!ENTITY st0 "fill:#FFFFFF;stroke-width:0.5;">
	<!ENTITY st1 "fill-rule:nonzero;clip-rule:nonzero;stroke:#000000;stroke-miterlimit:4;">
	<!ENTITY st2 "stroke:none;">
]>
<!-- This set of SVG files is a complete cards game with figures, numbers	-->
<!--    and backs of cards completely designed in SVG.				-->
<!--    									-->
<!--    Copyright (C) 2004 David Bellot						-->
<!--										-->
<!--    This library is free software; you can redistribute it and/or		-->
<!--    modify it under the terms of the GNU Lesser General Public		-->
<!--    License as published by the Free Software Foundation; either		-->
<!--    version 2 of the License, or (at your option) any later version		-->
<!--										-->
<!--    This library is distributed in the hope that it will be useful,		-->
<!--    but WITHOUT ANY WARRANTY; without even the implied warranty of		-->
<!--    MERCHANTABILITY or FITNESS FOR A PARTICULAR PURPOSE.  See the GNU	-->
<!--    Lesser General Public License for more details.				-->
<!--										-->
<!--    You should have received a copy of the GNU Lesser General Public	-->
<!--    License along with this library; if not, write to the Free Software	-->
<!--    Foundation, Inc., 59 Temple Place, Suite 330, Boston, MA 02111-1307  USA-->
<!--										-->
<!--    Contact the author David Bellot at bellot@stat.berkeley.edu or 		-->
<!--    david.bellot@free.fr or yimyom@users.sourceforge.net			-->
<svg  width="167.0859375pt" height="242.6669922pt" viewBox="0 0 167.0859375 242.6669922" xml:space="preserve">
	<g id="Layer_x0020_1" style="&st1;">
		<path style="&st0;" d="M166.8359375,235.5478516c0,3.7792969-3.0859375,6.8691406-6.8701172,6.8691406H7.1108398c-3.7749023,0-6.8608398-3.0898438-6.8608398-6.8691406V7.1201172C0.25,3.3447266,3.3359375,0.25,7.1108398,0.25h152.8549805
			c3.7841797,0,6.8701172,3.0947266,6.8701172,6.8701172v228.4277344z"/>
		<g style="&st2;">
			<path d="M91.8447266,111.4248047c0,3.7753906-3.1533203,6.8339844-7.0458984,6.8339844c-3.8911133,0-7.0454102-3.0585938-7.0454102-6.8339844c0-3.7734375,3.1542969-6.8330078,7.0454102-6.8330078c3.8925781,0,7.0458984,3.0595703,7.0458984,6.8330078z"/>
			<path d="M100.9169922,124.3544922c0,3.7753906-3.1542969,6.8339844-7.0458984,6.8339844s-7.0458984-3.0585938-7.0458984-6.8339844c0-3.7734375,3.1542969-6.8330078,7.0458984-6.8330078s7.0458984,3.0595703,7.0458984,6.8330078z"/>
			<path d="M82.875,124.4052734c0,1.3818359-0.4228516,2.6679688-1.1503906,3.7431641c-1.2587891,1.8613281-3.4296875,3.0898438-5.8964844,3.0898438c-3.8916016,0-7.0449219-3.0585938-7.0449219-6.8330078c0-3.7739258,3.1533203-6.8339844,7.0449219-6.8339844
				c3.8920898,0,7.046875,3.0600586,7.046875,6.8339844z"/>
			<g>
				<path d="M93.0634766,137.6689453c-3.4794922,0.0019531-5.3095703-2.828125-6.2705078-5.6572266c-0.9599609-2.8300781-1.0507813-5.6611328-1.0507813-5.6611328l-1.7753906-0.0146484c0,0-0.3330078,11.3242188-7.2900391,11.3300781l16.3867188,0.0029297z"/>
			</g>
			<g>
				<path d="M80.0097656,116.4370117c3.9570313,3.9575195,3.9570313,9.8989258,3.9570313,9.8989258l1.7753906,0.0146484c0,0,0-6.0673828,3.8466797-9.9135742"/>
			</g>
			<g>
				<path d="M80.8017578,129.1533203c3.9570313-3.9570313,9.8994141-3.9570313,9.8994141-3.9570313l0.0136719-1.7753906c0,0-6.0673828,0-9.9130859-3.8461914"/>
			</g>
			<g>
				<path d="M88.7382813,129.1826172c-3.9570313-3.9570313-9.8994141-3.9570313-9.8994141-3.9570313l-0.0141602-1.7753906c0,0,6.0678711,0,9.9135742-3.8461914"/>
			</g>
		</g>
		<g>
			<path style="&st2;" d="M10.987793,25.8271484v-1.46875h0.6616211l3.0327148-16.5625h1.2807617l3.0449219,16.5625h0.7612305v1.46875h-3.7700195v-1.46875h0.7856445l-0.6645508-3.6875h-3.0209961l-0.6762695,3.6875h0.9663086v1.46875H10.987793z
				 M13.3652344,19.2021484h2.4887695l-1.2324219-6.8847656l-1.2563477,6.8847656z"/>
		</g>
		<g>
			<path style="&st2;" d="M155.5107422,216.4091797v1.46875h-0.6611328l-3.0332031,16.5625h-1.28125l-3.0449219-16.5625h-0.7607422v-1.46875H150.5v1.46875h-0.7861328l0.6650391,3.6875h3.0205078l0.6767578-3.6875h-0.9667969v-1.46875h2.4013672z
				 M153.1328125,223.0341797h-2.4882813l1.2324219,6.8847656l1.2558594-6.8847656z"/>
		</g>
		<g style="&st2;">
			<path d="M18.1401367,31.1591797c0,1.1342773-0.9477539,2.0532227-2.1166992,2.0532227c-1.1694336,0-2.1171875-0.9189453-2.1171875-2.0532227c0-1.1337891,0.9477539-2.0532227,2.1171875-2.0532227c1.1689453,0,2.1166992,0.9194336,2.1166992,2.0532227z"/>
			<path d="M20.8662109,35.0439453c0,1.1342773-0.9482422,2.0532227-2.1171875,2.0532227c-1.1694336,0-2.1171875-0.9189453-2.1171875-2.0532227c0-1.1337891,0.9477539-2.0527344,2.1171875-2.0527344c1.1689453,0,2.1171875,0.9189453,2.1171875,2.0527344z"/>
			<path d="M15.4453125,35.059082c0,0.4150391-0.1269531,0.8017578-0.3457031,1.1245117c-0.378418,0.5595703-1.0302734,0.9287109-1.7714844,0.9287109c-1.1694336,0-2.1166992-0.9189453-2.1166992-2.0532227c0-1.1337891,0.9472656-2.0532227,2.1166992-2.0532227
				c1.1689453,0,2.1171875,0.9194336,2.1171875,2.0532227z"/>
			<g>
				<path d="M18.5063477,39.0439453c-1.0454102,0.0009766-1.5952148-0.8491211-1.8842773-1.6992188c-0.2880859-0.8505859-0.3154297-1.7011719-0.3154297-1.7011719l-0.5332031-0.0043945c0,0-0.1000977,3.4023438-2.1904297,3.4042969l4.9233398,0.0004883z"/>
			</g>
			<g>
				<path d="M14.5844727,32.6650391c1.1889648,1.1889648,1.1889648,2.9741211,1.1889648,2.9741211l0.5332031,0.0043945c0,0,0-1.8232422,1.1557617-2.9785156"/>
			</g>
			<g>
				<path d="M14.8222656,36.4858398c1.1889648-1.1889648,2.9741211-1.1889648,2.9741211-1.1889648l0.0043945-0.5336914c0,0-1.8232422,0-2.9785156-1.1552734"/>
			</g>
			<g>
				<path d="M17.2070313,36.4946289c-1.1889648-1.1889648-2.9746094-1.1889648-2.9746094-1.1889648l-0.0039063-0.5336914c0,0,1.8227539,0,2.9785156-1.1552734"/>
			</g>
		</g>
		<g style="&st2;">
			<path d="M148.2783203,210.7724609c0-1.1347656,0.9482422-2.0537109,2.1171875-2.0537109s2.1162109,0.9189453,2.1162109,2.0537109c0,1.1328125-0.9472656,2.0527344-2.1162109,2.0527344s-2.1171875-0.9199219-2.1171875-2.0527344z"/>
			<path d="M145.5527344,206.8876953c0-1.1347656,0.9472656-2.0537109,2.1171875-2.0537109c1.1689453,0,2.1171875,0.9189453,2.1171875,2.0537109c0,1.1328125-0.9482422,2.0527344-2.1171875,2.0527344c-1.1699219,0-2.1171875-0.9199219-2.1171875-2.0527344z"/>
			<path d="M150.9736328,206.8720703c0-0.4160156,0.1269531-0.8017578,0.3457031-1.125c0.3779297-0.5585938,1.0302734-0.9277344,1.7714844-0.9277344c1.1689453,0,2.1162109,0.9179688,2.1162109,2.0527344c0,1.1337891-0.9472656,2.0527344-2.1162109,2.0527344
				s-2.1171875-0.9189453-2.1171875-2.0527344z"/>
			<g>
				<path d="M147.9121094,202.8867188c1.0458984-0.0009766,1.5957031,0.8496094,1.8847656,1.7001953c0.2880859,0.8496094,0.3144531,1.7011719,0.3144531,1.7011719l0.5341797,0.0039063c0,0,0.1005859-3.4023438,2.1904297-3.4042969l-4.9238281-0.0009766z"/>
			</g>
			<g>
				<path d="M151.8339844,209.2666016c-1.1884766-1.1894531-1.1884766-2.9746094-1.1884766-2.9746094l-0.5341797-0.0039063c0,0,0,1.8222656-1.1542969,2.9785156"/>
			</g>
			<g>
				<path d="M151.5966797,205.4453125c-1.1894531,1.1884766-2.9746094,1.1884766-2.9746094,1.1884766l-0.0039063,0.5332031c0,0,1.8232422,0,2.9785156,1.15625"/>
			</g>
			<g>
				<path d="M149.2119141,205.4365234c1.1884766,1.1894531,2.9736328,1.1894531,2.9736328,1.1894531l0.0048828,0.5332031c0,0-1.8232422,0-2.9785156,1.1552734"/>
			</g>
		</g>
	</g>
</svg>
